<svg xmlns="http://www.w3.org/2000/svg" class="lks-lung lks-lung--small" viewBox="40 30 160 170" width="48" height="51" role="img" aria-label="Lungen-Symbol der Radiologie Dammtor"><style>.lks-lung__left{fill:#68b1d4}.lks-lung__right{fill:#45aa9a}.lks-lung__rings{color:rgba(255,255,255,.35)}</style>
  <path class="lks-lung__left" d="M108 78c-20-5-49 17-60 52-9 31-6 58 9 65 16 7 36-2 49-13 5-17 6-78 2-104z"/>
  <path class="lks-lung__right" d="M132 78c20-5 49 17 60 52 9 31 6 58-9 65-16 7-36-2-49-13-5-17-6-78-2-104z"/>
  <g class="lks-lung__bronchi" fill="none" stroke="#fff" stroke-width="7" stroke-linecap="round" stroke-linejoin="round">
    <path d="M120 38v62M120 100l-20 16-20 8M100 116l-6 30M120 100l20 16 20 8M140 116l6 30"/>
  </g>
  <g class="lks-lung__target" fill="none" stroke="#fff">
    <circle cx="160" cy="170" r="11" stroke-width="5"/>
    <circle cx="160" cy="170" r="4" fill="#fff" stroke="none"/>
  </g>
</svg>
